<svg width="60" height="124" viewBox="0 0 60 124" fill="none" xmlns="http://www.w3.org/2000/svg">
<path d="M22.9532 68.3113C22.1193 70.6841 21.6309 73.533 21.6309 76.5997C21.6309 84.8615 25.1604 91.5598 29.5156 91.5598C33.8698 91.5598 37.4003 84.8615 37.4003 76.5997C37.4003 73.533 36.9119 70.6841 36.078 68.3113H22.9532Z" fill="#312464"/>
<path opacity="0.9" d="M29.5157 123.501C45.8167 123.501 59.0313 110.287 59.0313 93.9856C59.0313 77.6846 45.8167 64.47 29.5157 64.47C13.2146 64.47 0 77.6846 0 93.9856C0 110.287 13.2146 123.501 29.5157 123.501Z" fill="white"/>
<path d="M28.9089 64.4697C23.6146 64.4697 18.6514 65.8707 14.3555 68.3109H43.4634C39.1664 65.8707 34.2022 64.4697 28.9089 64.4697Z" fill="#3D306B"/>
<path d="M29.5157 0H28.3027V64.4697H29.5157V0Z" fill="#312464"/>
</svg>
