<svg width="89" height="26" viewBox="0 0 89 26" fill="none" xmlns="http://www.w3.org/2000/svg">
<path d="M64.6626 0.285551L64.6068 0.239194C64.6068 0.239194 62.4932 1.2776 59.6534 1.30542C56.7485 1.34251 55.3146 0.137207 55.3146 0.137207L53.0428 3.21535C53.0428 3.21535 54.8584 4.30939 57.7354 4.27231C62.8284 4.22595 64.6626 0.285551 64.6626 0.285551ZM27.848 23.9094C25.3061 23.2975 24.9709 22.6763 22.8388 19.4405L12.5225 3.91999C11.0421 1.69482 13.1835 1.0829 13.7142 1.0829V0.387538H0.949219V0.999459C2.40169 0.999459 4.73869 2.00078 7.1781 5.67231L17.513 21.2299C19.0586 23.4087 16.9823 24.1597 15.6136 24.1597V24.716H28.3507V23.9743C28.0528 23.965 27.8759 23.9187 27.848 23.9094Z" fill="#030303"/>
<path d="M16.1169 8.71352L16.5079 9.35326L18.398 6.84067C18.4911 6.7016 19.7853 5.18107 20.5209 4.291C20.5767 4.21683 20.6512 4.1612 20.7164 4.0963C23.5469 1.24067 25.9025 1.1016 27.0849 0.953253V0.378418H16.9176V0.897623C18.5284 0.823451 20.8374 1.64862 18.6029 5.16253L16.1169 8.71352ZM44.6729 21.4341V12.9228C44.6729 9.26981 41.8611 7.04465 37.2709 7.04465C33.8073 7.04465 31.0048 8.491 30.9023 8.53736L31.2748 12.793H31.3493C31.3493 12.793 35.297 6.52544 37.7923 7.5824L37.6806 7.52677C37.7551 7.55458 37.8295 7.59167 37.904 7.63802C37.8668 7.61948 37.8295 7.60094 37.783 7.5824L37.904 7.63802C38.863 8.15723 39.6265 9.42743 39.6265 11.6711V13.238C38.6023 13.4698 36.6936 13.9519 33.919 14.8142C29.9899 16.038 28.7702 17.8738 28.7702 20.2658C28.7702 23.6221 31.2562 25.2354 33.8725 25.2354C37.1126 25.2354 38.891 22.899 39.6265 21.6195V24.7162H46.5258V24.6142C46.5444 24.6327 44.6729 23.6129 44.6729 21.4341ZM39.6451 20.8592C39.3565 21.3135 38.3882 22.593 36.7495 22.593C35.1294 22.593 33.8632 21.7215 33.8632 19.5056C33.8632 16.3811 37.8295 14.4433 39.6451 13.7201V20.8592ZM62.7265 7.60094H60.8271L60.8084 7.69365L55.0079 20.8036H54.7844V10.8923C54.7937 8.72279 56.6559 7.70292 56.6559 7.70292V7.60094H47.8851V7.70292C47.8851 7.70292 49.7473 8.72279 49.7566 10.8923V21.4248C49.7473 23.5943 47.8851 24.6142 47.8851 24.6142V24.7162H54.0209L54.0861 24.5215L59.9705 11.3744H60.2219V21.4155C60.2219 23.5943 58.3504 24.6142 58.3504 24.6142V24.7162H67.1211V24.6142C67.1211 24.6142 65.259 23.5943 65.2497 21.4248V10.9016C65.2497 8.72279 67.1211 7.70292 67.1211 7.70292V7.60094H62.7265ZM88.3869 7.70292V7.60094H69.1416V7.70292C69.1416 7.70292 71.0037 8.72279 71.013 10.8923V21.4155C71.013 23.5943 69.1416 24.6049 69.1416 24.6049V24.7069H77.9123V24.6142C77.9123 24.6142 76.0501 23.5943 76.0408 21.4248V8.27776H81.4876V21.4155C81.4783 23.5943 79.6068 24.6142 79.6068 24.6142V24.7162H88.3776V24.6142C88.3776 24.6142 86.5154 23.5943 86.5061 21.4155V10.9016C86.5154 8.72279 88.3869 7.70292 88.3869 7.70292ZM9.4504 19.0327L12.0109 14.4433L11.685 13.989L8.10966 18.9771C5.40954 23.0473 2.03905 24.1321 0.577266 24.2248C0.484159 24.2341 0.400362 24.2341 0.325876 24.2341H0V24.7162H11.9364L11.9271 24.1506C11.7222 24.1228 8.71485 24.5771 8.85451 21.2301C8.89176 20.4884 9.14315 19.7188 9.4504 19.0327Z" fill="#030303"/>
</svg>
