<svg width="200" height="180" viewBox="0 0 200 180" fill="none" xmlns="http://www.w3.org/2000/svg">
<path d="M0 5.33901L86.7732 0.0916699C86.7732 0.0916699 98.6388 -1.81651 107.787 11.779C116.934 25.3753 129.294 60.4374 129.294 60.4374L136.464 85.9839L98.0671 95.532L34.363 90.0147L0 5.33901Z" fill="#E0CDCC"/>
<path d="M128.842 59.1726L192.086 66.2256L187.885 89.8855L134.733 85.5075L128.842 59.1726Z" fill="#D9C2BF"/>
<path d="M98.2807 103.666L96.6621 92.6841L187.886 87.7739L188.134 122.724L102.101 140.607L98.2807 103.666Z" fill="#AD8779"/>
<path d="M187.284 89.0272C187.284 89.0272 188.604 86.1703 178.986 85.2801C163.812 83.8752 132.7 83.7337 131.273 84.0874L96.6523 89.8864L98.2814 103.667C98.2814 103.667 121.685 101.019 146.263 97.091C161.01 94.733 176.12 91.6718 187.284 89.0272Z" fill="#E8DFE1"/>
<path d="M100.693 122.983L102.73 140.487L186.883 122.983V107.126L100.693 122.983Z" fill="#E0CDCC"/>
<path d="M98.6523 103.949C98.6523 103.949 129.878 100.266 145.935 97.587C167.689 93.9569 186.884 89.6582 186.884 89.6582V106.393L100.694 122.564L98.6523 103.949Z" fill="#E8DFE1"/>
<path d="M187.145 122.984L200.001 119.617C200.001 119.617 197.419 70.5875 196.925 68.6786C196.429 66.7704 187.145 63.9215 187.145 69.4576C187.145 73.7014 187.145 122.984 187.145 122.984Z" fill="#EFE1E1"/>
<path d="M87.4043 143.39L88.9982 179.407L95.399 177.817L95.8098 141.481L87.4043 143.39Z" fill="#CFBEB1"/>
<path d="M174.752 125.551L175.279 132.577L170.189 133.546L95.3984 149.353L95.8092 141.481L174.752 125.551Z" fill="#CFBEB1"/>
<path opacity="0.2" d="M142.768 86.0532L97.4771 96.5464L97.3574 93.2369L127.68 86.0532H142.768Z" fill="#636363"/>
<path d="M174.752 125.552L180.852 124.287L182.199 155.396L177.12 157.141L174.752 125.552Z" fill="#CFBEB1"/>
<path d="M174.083 156.581L177.119 157.141L175.279 132.577L170.189 133.547L174.083 156.581Z" fill="#AD9B90"/>
<path opacity="0.1" d="M141.262 71.8086L150.735 83.8858L146.885 83.9234L141.262 71.8086Z" fill="#636363"/>
<path d="M83.5312 143.271L87.4044 143.39L88.9983 179.408L86.169 178.613L83.5312 143.271Z" fill="#AD9B90"/>
<path opacity="0.1" d="M53.4043 34.4624L58.5256 76.0743L69.7103 77.3796L59.3293 44.212L53.4043 34.4624Z" fill="#636363"/>
<path d="M83.5307 143.271L83.8217 147.176L25.5449 137.984L27.165 133.452L83.5307 143.271Z" fill="#99887F"/>
<path d="M25.1257 126.913L12.9922 166.05L14.3107 167.937L27.423 133.496L25.1257 126.913Z" fill="#99887F"/>
<path d="M29.2599 138.525L25.5454 137.984L14.3105 167.937L18.3798 166.786L29.2599 138.525Z" fill="#70615A"/>
<path d="M146.724 82.8852C127.268 82.8852 107.065 86.4951 88.3573 79.9973C74.4817 74.6424 66.3957 62.4612 59.3281 50.9326C60.4087 57.1546 62.025 63.9051 64.9478 71.6736C69.3073 83.2606 74.6957 90.4443 74.6957 90.4443C74.6957 90.4443 83.5959 94.0217 88.2929 93.7834C91.4754 93.6217 112.092 92.9856 127.68 87.682C134.415 85.3904 144.704 87.786 146.886 83.9234C147.027 83.6721 147.055 83.314 147.005 82.883C146.911 82.883 146.817 82.8852 146.724 82.8852Z" fill="#DDDDDD"/>
<path d="M88.3572 79.9977C107.064 86.4955 127.268 82.8856 146.724 82.8856C146.817 82.8856 146.911 82.8834 147.004 82.8827C146.395 77.6332 132.585 60.0762 130.796 54.9451C127.564 45.6705 126.416 30.779 123.923 27.5648C122.761 26.0667 118.897 32.6381 110.093 31.3609C100.143 29.917 87.7698 28.5936 67.316 33.5269C62.61 34.6618 53.9635 32.9666 53.9635 32.9666C51.4612 35.4726 58.1158 42.8722 58.4937 45.5839C58.7369 47.3289 59.01 49.11 59.3265 50.9338C66.3964 62.4616 74.4816 74.6428 88.3572 79.9977Z" fill="#E9EBEC"/>
<path d="M0.027804 5.2649C-0.713751 5.23602 13.6242 83.7395 13.6242 83.7395L27.2214 134.784L86.8975 143.848C86.8975 143.848 84.3384 98.6491 83.5871 89.2258C83.0925 83.024 79.8786 82.3086 64.799 80.4004C64.799 80.4004 47.8525 77.5666 36.3685 74.4368C26.3654 71.7114 19.2035 52.5025 14.6142 30.7868C9.42109 6.21936 6.20718 5.50388 0.027804 5.2649Z" fill="#C5A497"/>
<path d="M86.2634 143.848L102.1 140.608C102.1 140.608 97.0769 89.55 96.0428 86.2239C94.5597 81.4538 89.0732 79.355 68.0597 77.2085C46.8741 75.044 41.2305 73.8405 36.9997 72.8665C34.7586 72.3511 31.3965 71.6746 31.3965 71.6746C34.692 77.0807 77.2076 80.8025 80.9153 85.3178C84.7773 90.0222 83.4737 92.8126 84.4173 107.127C85.7044 126.675 86.2634 143.848 86.2634 143.848Z" fill="#EFE1E1"/>
<path d="M84.03 143.295C83.9964 142.814 80.6216 95.1396 80.4143 93.1823C80.3956 93.0033 80.3806 92.8127 80.3657 92.6141C80.198 90.4511 79.9459 87.1827 72.4592 85.2565C68.9954 84.3655 63.0674 83.2262 56.7915 82.0213C47.7485 80.2842 38.3971 78.4872 34.6339 77.1082C27.2101 74.3864 22.0769 64.9393 19.0785 57.4921C16.5545 51.2253 13.5232 38.3388 11.0867 27.9834C9.2826 20.3153 7.72465 13.6926 6.86187 11.77C4.78911 7.15367 0.343523 7.8446 0.298626 7.85398L0.169922 7.14284C0.220057 7.13634 5.24333 6.35155 7.54806 11.4834C8.43853 13.4681 10.0039 20.1204 11.8163 27.8239C14.2467 38.1554 17.2721 51.0145 19.7751 57.2315C23.997 67.7138 29.2268 74.3539 34.8996 76.4332C38.6043 77.7919 47.9243 79.5817 56.9374 81.3137C63.2253 82.5216 69.1637 83.6623 72.6515 84.559C80.6515 86.6181 80.9396 90.3385 81.111 92.5607C81.1259 92.7535 81.1401 92.9369 81.1581 93.1101C81.3661 95.0797 84.6369 141.282 84.7761 143.247L84.03 143.295Z" fill="#967364"/>
</svg>
