<svg width="88" height="70" viewBox="0 0 88 70" fill="none" xmlns="http://www.w3.org/2000/svg">
<path opacity="0.2" d="M59.2821 37.2647C55.8632 35.7549 53.1966 33.4902 51.2821 30.4706C49.3675 27.451 48.4103 23.8824 48.4103 19.7647C48.4103 13.8627 50.2564 9.05883 53.9487 5.35296C57.641 1.78432 62.359 5.38778e-06 68.1026 5.88991e-06C73.8462 6.39203e-06 78.6325 1.85296 82.4615 5.55884C86.1539 9.26472 88 14 88 19.7647C88 22.5098 87.6581 25.2549 86.9744 28C86.2906 30.7451 84.7863 34.8628 82.4615 40.353L70.5641 70L50.2564 70L59.2821 37.2647ZM10.8718 37.2647C7.45299 35.7549 4.78632 33.4902 2.87179 30.4706C0.957264 27.451 4.03173e-06 23.8823 4.39171e-06 19.7647C4.90767e-06 13.8627 1.84615 9.05883 5.53846 5.35295C9.23077 1.78432 13.9487 1.15563e-06 19.6923 1.65775e-06C25.4359 2.15987e-06 30.2222 1.85295 34.0513 5.55883C37.7436 9.26472 39.5897 14 39.5897 19.7647C39.5897 22.5098 39.2479 25.2549 38.5641 28C37.8803 30.7451 36.3761 34.8627 34.0513 40.3529L22.1538 70L1.84615 70L10.8718 37.2647Z" fill="white"/>
</svg>
