<svg width="161" height="345" viewBox="0 0 161 345" fill="none" xmlns="http://www.w3.org/2000/svg">
<path d="M117.811 268.606C114.765 243.808 111.416 216.929 111.416 216.929H98.1758L109.485 278.017C112.606 275.213 115.482 272.174 117.811 268.606Z" fill="#99887F"/>
<path d="M117.81 268.604C115.482 272.173 112.605 275.212 109.484 278.016L115.386 309.892C117.592 315.068 122.888 313.343 122.671 309.398C122.571 307.629 120.292 288.808 117.81 268.604Z" fill="#AD9B90"/>
<path d="M49.3545 216.053H35.8538C35.8538 216.053 31.9839 246.503 28.7363 272.483C31.5941 274.313 34.497 276.413 37.618 278.211L49.3545 216.053Z" fill="#99887F"/>
<path d="M28.7354 272.482C26.4462 290.798 24.4669 306.893 24.3738 308.524C24.1527 312.469 29.5527 314.195 31.8011 309.018L37.617 278.211C34.496 276.412 31.5931 274.312 28.7354 272.482Z" fill="#AD9B90"/>
<path d="M147.979 121.26H0V248.501H147.979V121.26Z" fill="#DFDFDF"/>
<path d="M143.377 124.96H5.36523V181.923H143.377V124.96Z" fill="white"/>
<path opacity="0.8" d="M73.2779 161.11C75.4723 161.11 77.2512 159.394 77.2512 157.277C77.2512 155.159 75.4723 153.443 73.2779 153.443C71.0836 153.443 69.3047 155.159 69.3047 157.277C69.3047 159.394 71.0836 161.11 73.2779 161.11Z" fill="#C6C6C6"/>
<path d="M143.377 184.88H5.36523V244.8H143.377V184.88Z" fill="white"/>
<path d="M5.36706 340.972C5.11255 344.916 11.2469 346.642 13.8022 341.466L31.6513 258.232C26.82 257.991 21.9785 257.696 17.1268 257.354C13.8851 279.865 5.57212 337.796 5.36706 340.972Z" fill="#CFBEB1"/>
<path d="M18.4004 248.5C18.4004 248.5 17.9118 251.887 17.125 257.352C21.9767 257.695 26.8182 257.989 31.6495 258.231L33.7364 248.5H18.4004Z" fill="#BFADA1"/>
<path d="M115.357 258.506L133.145 341.465C135.701 346.641 141.835 344.915 141.582 340.971C141.377 337.825 133.211 280.904 129.911 257.966C125.055 258.163 120.205 258.346 115.357 258.506Z" fill="#CFBEB1"/>
<path d="M128.547 248.5H113.213L115.359 258.506C120.207 258.346 125.057 258.162 129.913 257.966C129.072 252.137 128.547 248.5 128.547 248.5Z" fill="#BFADA1"/>
<path d="M74.3713 159.729C76.4122 159.729 78.0668 158.133 78.0668 156.164C78.0668 154.195 76.4122 152.598 74.3713 152.598C72.3303 152.598 70.6758 154.195 70.6758 156.164C70.6758 158.133 72.3303 159.729 74.3713 159.729Z" fill="#020202"/>
<path opacity="0.8" d="M73.2779 219.886C75.4723 219.886 77.2512 218.17 77.2512 216.053C77.2512 213.935 75.4723 212.219 73.2779 212.219C71.0836 212.219 69.3047 213.935 69.3047 216.053C69.3047 218.17 71.0836 219.886 73.2779 219.886Z" fill="#C6C6C6"/>
<path d="M74.3713 218.407C76.4122 218.407 78.0668 216.811 78.0668 214.842C78.0668 212.872 76.4122 211.276 74.3713 211.276C72.3303 211.276 70.6758 212.872 70.6758 214.842C70.6758 216.811 72.3303 218.407 74.3713 218.407Z" fill="#020202"/>
<path d="M147.979 121.261H0L14.5434 113.37H133.435L147.979 121.261Z" fill="#EAEAEA"/>
<path d="M107.51 0.251953H13.8613V117.314H107.51V0.251953Z" fill="#3A3A3A"/>
<path d="M103.352 4.29858H18.0234V112.767H103.352V4.29858Z" fill="white"/>
<path d="M64.8779 35.082C68.4995 35.082 71.4355 32.2493 71.4355 28.755C71.4355 25.2607 68.4995 22.428 64.8779 22.428C61.2562 22.428 58.3203 25.2607 58.3203 28.755C58.3203 32.2493 61.2562 35.082 64.8779 35.082Z" fill="#CDCBC4"/>
<path d="M51.0308 30.2314C53.2646 30.2314 55.0754 28.4842 55.0754 26.3291C55.0754 24.1739 53.2646 22.4268 51.0308 22.4268C48.7971 22.4268 46.9863 24.1739 46.9863 26.3291C46.9863 28.4842 48.7971 30.2314 51.0308 30.2314Z" fill="#CDCBC4"/>
<path d="M57.104 54.4539C60.2767 54.4539 62.8487 51.9724 62.8487 48.9113C62.8487 45.8502 60.2767 43.3687 57.104 43.3687C53.9314 43.3687 51.3594 45.8502 51.3594 48.9113C51.3594 51.9724 53.9314 54.4539 57.104 54.4539Z" fill="#CDCBC4"/>
<path d="M70.6216 49.6917C73.0802 49.6917 75.0734 47.7687 75.0734 45.3965C75.0734 43.0243 73.0802 41.1013 70.6216 41.1013C68.163 41.1013 66.1699 43.0243 66.1699 45.3965C66.1699 47.7687 68.163 49.6917 70.6216 49.6917Z" fill="#CDCBC4"/>
<path d="M53.866 67.9712C57.1294 67.9712 59.7749 65.4187 59.7749 62.27C59.7749 59.1214 57.1294 56.5688 53.866 56.5688C50.6026 56.5688 47.957 59.1214 47.957 62.27C47.957 65.4187 50.6026 67.9712 53.866 67.9712Z" fill="#CDCBC4"/>
<path d="M73.058 65.7037C76.2355 65.7037 78.8114 63.2184 78.8114 60.1526C78.8114 57.0868 76.2355 54.6016 73.058 54.6016C69.8805 54.6016 67.3047 57.0868 67.3047 60.1526C67.3047 63.2184 69.8805 65.7037 73.058 65.7037Z" fill="#CDCBC4"/>
<path d="M59.0523 99.8353C58.9112 98.3816 55.7407 64.2615 68.6131 61.5828L68.9199 62.9565C57.3012 65.3742 60.4688 99.3597 60.5037 99.7034L59.0523 99.8353Z" fill="#CDCBC4"/>
<path d="M61.0974 75.9568L59.6488 75.8038C60.4152 69.0895 56.7024 66.2902 56.666 66.2635L57.5444 65.1423C57.7262 65.2742 61.954 68.4595 61.0974 75.9568Z" fill="#CDCBC4"/>
<path d="M62.3073 70.8198L60.85 70.7637C62.092 39.781 50.946 28.1822 50.834 28.0699L51.8826 27.0947C52.3611 27.5732 63.574 39.1594 62.3073 70.8198Z" fill="#CDCBC4"/>
<path d="M58.6309 49.81C56.6458 38.677 62.1068 33.3939 62.341 33.175L63.3589 34.1797C63.3066 34.2303 58.2179 39.213 60.0693 49.5714L58.6309 49.81Z" fill="#CDCBC4"/>
<path d="M60.6868 58.5315C60.617 53.1474 61.699 49.4612 63.9082 47.5725C65.601 46.1244 67.3302 46.3279 67.4015 46.3391L67.2065 47.7324L67.304 47.0351L67.2138 47.7324C67.1673 47.731 66.0169 47.623 64.8316 48.6586C63.5605 49.7727 62.0611 52.3883 62.1425 58.516L60.6868 58.5315Z" fill="#CDCBC4"/>
<path d="M103.355 112.767L107.516 117.313V0.251465L103.355 4.29968V112.767Z" fill="#727272"/>
<path d="M18.0222 112.515L13.8613 117.063V0L18.0222 4.04822V112.515Z" fill="#111111"/>
<path opacity="0.7" d="M107.379 7.198L127.344 112.768H107.516L107.379 7.198Z" fill="#C6C6C6"/>
<path d="M152.067 104.987H78.0664V120.769H152.067V104.987Z" fill="#DED5C6"/>
<path d="M158.201 97.5891H87.1504V104.987H158.201V97.5891Z" fill="#E9E7DE"/>
<path d="M148.066 90.8506H78.1543V99.2361H148.066V90.8506Z" fill="#CDCAC6"/>
<path d="M152.155 82.9604H78.1543V90.8506H152.155V82.9604Z" fill="#DED5C6"/>
<path d="M160.843 76.0554H91.8379V82.9606H160.843V76.0554Z" fill="#E9E7DE"/>
<path d="M5.36651 244.802L0 248.5V121.26L5.36651 124.959V244.802Z" fill="#C6C6C6"/>
<path d="M143.045 244.804L148.41 248.502V121.262L143.045 124.961V244.804Z" fill="#EFEFEF"/>
<path opacity="0.5" d="M152.156 82.96H160.846L148.068 99.2357V90.8501H152.156V82.96Z" fill="#CDCBC4"/>
<path opacity="0.5" d="M152.156 104.987H158.03L152.156 112.877V104.987Z" fill="#CDCBC4"/>
</svg>
