<svg width="103" height="103" viewBox="0 0 103 103" fill="none" xmlns="http://www.w3.org/2000/svg">
<g opacity="0.11">
<path opacity="0.11" d="M102.989 2.06104H2.24023V102.81H102.989V2.06104Z" fill="#775B52"/>
</g>
<path d="M100.749 0H0V100.749H100.749V0Z" fill="#F3F3F3"/>
<path d="M25.5738 49.6411C12.2798 49.6411 1.46484 38.8261 1.46484 25.5321C1.46484 12.2381 12.2798 1.4231 25.5738 1.4231C38.8678 1.4231 49.6819 12.2381 49.6819 25.5321C49.6819 38.8261 38.8678 49.6411 25.5738 49.6411ZM25.5738 2.07809C12.6408 2.07809 2.11884 12.5991 2.11884 25.5331C2.11884 38.4671 12.6408 48.9881 25.5738 48.9881C38.5068 48.9881 49.0279 38.4661 49.0279 25.5331C49.0279 12.6001 38.5068 2.07809 25.5738 2.07809Z" fill="#D3A346"/>
<path d="M1.77539 25.5331C1.77539 38.7451 12.4014 49.4711 25.5734 49.6421V1.42407C12.4014 1.59507 1.77539 12.3201 1.77539 25.5331Z" fill="#100F16"/>
<path d="M75.3309 49.4861C62.1229 49.4861 51.377 38.7411 51.377 25.5321C51.377 12.3241 62.1229 1.57812 75.3309 1.57812C88.5389 1.57812 99.2839 12.3231 99.2839 25.5321C99.2839 38.7411 88.5389 49.4861 75.3309 49.4861ZM75.3309 2.22913C62.4809 2.22913 52.0269 12.6831 52.0269 25.5331C52.0269 38.3831 62.4809 48.8361 75.3309 48.8361C88.1799 48.8361 98.6339 38.3821 98.6339 25.5321C98.6339 12.6821 88.1809 2.22913 75.3309 2.22913Z" fill="#D3A346"/>
<path d="M75.1754 49.4862C88.3874 49.4862 99.1134 38.8602 99.2844 25.6882H51.0664C51.2374 38.8602 61.9624 49.4862 75.1754 49.4862Z" fill="#100F16"/>
<path d="M75.1751 98.402C62.0481 98.402 51.3691 87.723 51.3691 74.596C51.3691 61.469 62.0481 50.79 75.1751 50.79C88.3021 50.79 98.9821 61.469 98.9821 74.596C98.9821 87.723 88.3021 98.402 75.1751 98.402ZM75.1751 51.436C62.4051 51.436 52.0151 61.825 52.0151 74.596C52.0151 87.367 62.4051 97.756 75.1751 97.756C87.9461 97.756 98.3361 87.366 98.3361 74.596C98.3361 61.825 87.9461 51.436 75.1751 51.436Z" fill="#D3A346"/>
<path d="M98.9738 74.5961C98.9738 87.8091 88.3478 98.5341 75.1758 98.7051V50.4871C88.3468 50.6581 98.9738 61.3831 98.9738 74.5961Z" fill="#100F16"/>
<path d="M25.5748 98.7051C12.2808 98.7051 1.46484 87.8901 1.46484 74.5961C1.46484 61.3021 12.2808 50.4871 25.5748 50.4871C38.8688 50.4871 49.6838 61.3021 49.6838 74.5961C49.6838 87.8901 38.8688 98.7051 25.5748 98.7051ZM25.5748 51.1411C12.6408 51.1411 2.11984 61.6631 2.11984 74.5961C2.11984 87.5291 12.6418 98.0511 25.5748 98.0511C38.5078 98.0511 49.0298 87.5291 49.0298 74.5961C49.0298 61.6631 38.5078 51.1411 25.5748 51.1411Z" fill="#D3A346"/>
<path d="M25.5738 98.705C38.7868 98.705 49.5118 87.9399 49.6828 74.5959H1.46484C1.63684 87.9399 12.3618 98.705 25.5738 98.705Z" fill="#100F16"/>
</svg>
