<svg width="211" height="348" viewBox="0 0 211 348" fill="none" xmlns="http://www.w3.org/2000/svg">
<path d="M92.9252 114.11C92.9252 114.11 95.519 115.155 98.1555 113.578C100.791 111.999 102.368 110.85 102.018 105.99C101.732 102.019 96.758 98.2665 92.9252 95.5879C92.1967 108.709 81.266 116.233 69.2578 120.126C72.6561 121.041 77.7844 119.723 81.0493 117.474C84.8394 114.865 86.1431 113.054 86.8997 114.318C87.6563 115.582 85.1646 117.032 83.8275 117.45C82.4916 117.868 76.7381 120.938 74.8664 122.478C72.9959 124.019 83.5576 120.536 85.2417 121.747C86.9268 122.958 94.3987 125.209 96.6799 123.818C98.96 122.428 101.831 120.752 99.7958 117.622C98.0075 114.873 92.7157 117.4 92.9252 114.11Z" fill="#476348"/>
<path d="M92.9241 95.5867C92.0654 94.9865 91.262 94.4388 90.5836 93.9558C86.8768 91.3176 77.8782 90.6911 76.8413 90.582C75.8044 90.4729 83.6827 96.2394 85.2094 99.5315C86.7361 102.823 86.5558 105.443 85.8117 106.625C85.0677 107.806 82.2602 103.588 82.452 100.702C82.6437 97.8147 79.6279 94.1711 76.339 92.0653C73.049 89.9606 71.9684 89.2442 71.9684 89.2442C71.9684 89.2442 61.2409 86.7979 53.7731 91.0104C52.4893 91.7349 53.8753 98.42 53.6585 98.613C53.6585 98.613 62.926 102.752 66.4077 102.486C69.8894 102.221 71.1597 103.416 70.548 104.737C69.9362 106.06 64.4037 105.569 61.8807 104.46C59.3588 103.35 55.4332 102.588 53.9555 101.451C52.4768 100.316 54.6423 106.528 57.407 108.456C60.1717 110.384 72.7062 112.535 78.1283 109.348C81.0941 107.604 81.7798 111.648 78.5576 112.327C78.5576 112.327 64.238 113.994 60.1842 111.535C56.1314 109.077 64.5715 117.575 67.7614 119.512C68.2032 119.78 68.7086 119.979 69.2547 120.126C81.264 116.232 92.1947 108.708 92.9241 95.5867ZM77.207 101.636C75.4417 101.272 73.4221 98.4856 73.0334 96.8922C72.7864 95.8737 73.5878 96.2041 73.5878 96.2041C73.5878 96.2041 75.2708 97.0215 77.2487 99.0131C79.1537 100.932 77.207 101.636 77.207 101.636Z" fill="#507153"/>
<path d="M82.9947 107.978C78.6721 105.438 71.791 102.853 71.791 102.853C71.791 102.853 80.6396 107.042 84.2578 109.306C84.7903 109.64 85.4499 110.056 86.1638 110.509C86.2868 110.386 86.4045 110.258 86.5254 110.133C84.9893 109.186 83.6127 108.34 82.9947 107.978Z" fill="#283C35"/>
<path d="M92.9244 114.11C92.9244 114.11 89.4364 111.933 86.5237 110.133C86.4039 110.258 86.2851 110.386 86.1621 110.509C89.1071 112.376 93.0004 114.875 93.0004 114.875L92.9244 114.11Z" fill="#21302A"/>
<path d="M120.002 205.844L117.918 205.881L118.304 225.871C118.999 225.895 119.694 225.916 120.39 225.933L120.002 205.844Z" fill="#774A3C"/>
<path d="M127.264 225.991L128.168 205.907L126.085 205.818L125.178 225.999C125.873 226 126.569 225.997 127.264 225.991Z" fill="#774A3C"/>
<path d="M125.178 225.999L121.828 300.498L120.391 225.933C119.695 225.916 119 225.896 118.305 225.871L120.369 332.971L122.452 332.996L127.265 225.991C126.57 225.997 125.874 226 125.178 225.999Z" fill="#B27454"/>
<path d="M138.672 205.834L136.588 205.891L137.173 225.621C137.868 225.573 138.561 225.524 139.254 225.468L138.672 205.834Z" fill="#774A3C"/>
<path d="M145.319 199.94L143.234 199.908L142.816 225.135C143.515 225.06 144.21 224.971 144.905 224.885L145.319 199.94Z" fill="#774A3C"/>
<path d="M142.818 225.134L141.535 302.482L139.255 225.468C138.562 225.525 137.869 225.573 137.174 225.621L140.787 347.63L142.871 347.617L144.907 224.883C144.21 224.97 143.515 225.059 142.818 225.134Z" fill="#B27454"/>
<path d="M91.4186 202.724L89.3354 202.667L88.7383 223.406C89.4282 223.488 90.1201 223.569 90.8162 223.648L91.4186 202.724Z" fill="#774A3C"/>
<path d="M93.8056 205.469L92.6738 223.862C93.3616 223.938 94.0546 224.013 94.7466 224.089L95.8856 205.589L93.8056 205.469Z" fill="#774A3C"/>
<path d="M89.1713 280.748L90.8158 223.648C90.1207 223.568 89.4277 223.487 88.7378 223.406L85.252 344.405L87.3341 344.494L94.7477 224.089C94.0546 224.014 93.3627 223.939 92.6749 223.861L89.1713 280.748Z" fill="#B27454"/>
<path d="M144.435 197.783L142.626 196.781C142.766 196.545 142.975 196.24 143.219 195.89C143.906 194.903 145.182 193.068 144.92 192.042C144.875 191.864 144.757 191.599 144.265 191.345C144.076 191.245 143.924 191.24 143.72 191.321C142.374 191.859 140.755 195.304 140.035 197.578L138.043 196.986C138.38 195.92 140.196 190.546 142.924 189.452C143.703 189.141 144.506 189.178 145.247 189.561C146.377 190.145 146.793 190.968 146.944 191.555C147.43 193.453 145.936 195.599 144.947 197.02C144.737 197.321 144.555 197.58 144.435 197.783Z" fill="#845340"/>
<path d="M92.6672 198.168C91.3093 195.077 89.5388 192.196 88.5863 191.447C88.7624 192.38 89.6263 194.412 91.2989 196.597L89.6253 197.8C89.5826 197.745 85.3912 192.221 86.7553 190.018C86.9283 189.739 87.4535 189.113 88.5759 189.27C90.9383 189.615 93.5665 195.055 94.5857 197.377L92.6672 198.168Z" fill="#845340"/>
<path d="M146.729 201.31C146.729 203.824 144.907 205.818 139.477 205.863C139.477 205.863 127.266 207.13 117.344 207.13C106.889 207.13 95.1807 205.863 95.1807 205.863C90.0806 205.843 87.9297 203.824 87.9297 201.31C87.9297 198.795 87.9297 196.755 95.1807 196.755H139.477C146.729 196.755 146.729 198.795 146.729 201.31Z" fill="white"/>
<path d="M117.048 201.31C133.131 201.31 146.169 199.973 146.169 198.325C146.169 196.676 133.131 195.34 117.048 195.34C100.966 195.34 87.9277 196.676 87.9277 198.325C87.9277 199.973 100.966 201.31 117.048 201.31Z" fill="#E5E5E5"/>
<path d="M138.028 182.596L143.49 145.156H117.344H91.1973L96.2369 179.699C109.843 183.572 124.134 184.458 138.028 182.596Z" fill="#B0AEB7"/>
<path d="M96.2363 179.698L98.95 198.296C98.95 198.296 109.588 199.846 117.342 199.403C125.095 199.846 135.735 198.296 135.735 198.296L138.026 182.595C124.134 184.458 109.842 183.571 96.2363 179.698Z" fill="#C2BFCB"/>
<path d="M115.699 156.044L51.1758 185.445L58.1329 187.603L112.646 161.434L115.699 156.044Z" fill="#293F3A"/>
<path d="M103.189 169.994C103.189 169.994 104.246 168.922 106.981 166.65C106.541 165.293 105.988 163.945 105.342 162.612C104.806 166.733 103.189 169.994 103.189 169.994Z" fill="#223428"/>
<path d="M89.2637 117.973C81.3583 120.199 78.1621 120.655 78.1621 120.655C78.1621 120.655 85.2558 121.809 89.865 126.157C89.9036 123.37 89.8077 120.594 89.2637 117.973Z" fill="#223428"/>
<path d="M114.428 143.041C110.39 137.081 101.27 140.088 101.27 140.088L91.8105 144.82C92.1388 145.363 92.5108 145.881 92.9412 146.368C96.0832 149.415 99.2199 152.917 101.825 156.665C100.234 152.855 100.663 150.875 100.663 150.875C103.343 151.214 104.023 152.475 105.026 156.179C105.612 158.345 105.606 160.581 105.341 162.612C105.987 163.945 106.54 165.292 106.979 166.649C108.518 165.37 110.582 163.716 113.302 161.648C120.859 155.904 118.468 149 114.428 143.041Z" fill="#1A2824"/>
<path d="M91.7531 144.719L102.231 139.447C102.231 139.447 110.03 133.965 107.345 127.325C104.661 120.686 100.231 114.806 91.0299 117.47C90.4161 117.648 89.8304 117.814 89.2656 117.974C89.8086 120.595 89.9055 123.371 89.8669 126.158C90.2108 126.483 90.5422 126.82 90.8548 127.18C93.3924 130.111 94.0614 131.379 92.7994 133.695C92.7994 133.695 91.4811 133.142 89.7262 130.979C89.5585 136.122 89.5595 141.012 91.7531 144.719Z" fill="#1A2824"/>
<path d="M91.8114 144.82L61.5632 159.954C61.5705 159.926 61.5746 159.906 61.5746 159.906L91.7531 144.719C89.5594 141.012 89.5584 136.122 89.7251 130.979C89.3531 130.52 88.9623 129.994 88.559 129.38C86.2549 125.87 79.2154 121.485 76.7269 121.976C74.2383 122.468 67.2791 126.358 66.1328 127.531C64.9865 128.702 79.0206 130.48 81.901 133.547C84.7824 136.612 87.8993 139.245 85.6077 140.731C83.3172 142.217 79.2436 138.611 78.0389 137.643C76.8353 136.675 66.8539 132.919 64.0548 134.402C61.2547 135.883 57.873 143.015 57.873 143.015C57.873 143.015 75.2054 141.665 75.7348 144.886C76.2652 148.107 71.1203 148.383 68.7547 148.016C66.3892 147.648 62.3843 146.563 61.584 154.957C61.2985 157.965 61.2151 159.448 61.2276 160.119L60.5606 160.451C60.5606 160.451 57.2019 159.085 64.7333 163.298C72.2625 167.514 73.661 163.718 74.7187 161.633C75.7765 159.549 78.9789 155.635 81.3851 157.916C83.7924 160.196 72.6429 173.136 72.6429 173.136C72.6429 173.136 80.6014 174.577 83.4662 173.217C86.331 171.856 88.9341 161.787 88.8143 160.276C88.6945 158.762 88.0108 153.455 90.5859 152.501C93.1609 151.546 93.5768 155.532 94.4928 159.586C95.4098 163.636 88.8028 175.771 90.4515 175.542C92.1001 175.31 99.3938 172.05 101.246 170.365C103.098 168.678 103.472 160.573 101.848 156.722C101.84 156.701 101.834 156.685 101.826 156.664C99.2208 152.915 96.083 149.412 92.9421 146.366C92.5117 145.881 92.1397 145.363 91.8114 144.82Z" fill="#223428"/>
<path d="M161.677 152.351C163.53 150.663 163.903 142.56 162.28 138.71C160.657 134.859 161.096 132.861 161.096 132.861C163.775 133.2 164.456 134.461 165.458 138.165C167.235 144.725 163.621 151.978 163.621 151.978C163.621 151.978 166.178 149.378 173.734 143.633C181.291 137.889 178.899 130.985 174.86 125.026C170.822 119.066 161.701 122.073 161.701 122.073L121.994 141.938C122.001 141.911 122.005 141.891 122.005 141.891L162.662 121.432C162.662 121.432 170.461 115.95 167.777 109.31C165.092 102.671 160.662 96.791 151.461 99.4545C142.26 102.118 138.595 102.64 138.595 102.64C138.595 102.64 146.789 103.969 151.285 109.165C153.823 112.096 154.492 113.364 153.23 115.68C153.23 115.68 151.295 114.874 148.991 111.365C146.687 107.855 139.647 103.47 137.159 103.961C134.67 104.453 127.711 108.343 126.564 109.515C125.418 110.687 139.452 112.465 142.333 115.532C145.214 118.597 148.331 121.229 146.039 122.716C143.749 124.202 139.675 120.596 138.471 119.628C137.267 118.66 127.286 114.904 124.486 116.386C121.686 117.868 118.305 124.999 118.305 124.999C118.305 124.999 135.637 123.649 136.166 126.871C136.697 130.092 131.552 130.368 129.186 130.001C126.821 129.633 122.816 128.548 122.016 136.942C121.73 139.95 121.647 141.433 121.659 142.104L120.992 142.436C120.992 142.436 117.634 141.069 125.165 145.283C132.694 149.498 134.093 145.703 135.15 143.618C136.208 141.534 139.411 137.621 141.817 139.902C144.224 142.182 133.075 155.121 133.075 155.121C133.075 155.121 141.033 156.563 143.898 155.201C146.763 153.841 149.366 143.773 149.246 142.263C149.126 140.749 148.442 135.442 151.018 134.487C153.593 133.533 154.008 137.519 154.924 141.573C155.841 145.621 149.235 157.758 150.883 157.529C152.532 157.299 159.825 154.036 161.677 152.351Z" fill="#1F302C"/>
<path d="M142.572 136.157C144.425 134.469 144.798 126.364 143.174 122.514C141.552 118.663 141.99 116.664 141.99 116.664C144.67 117.004 145.35 118.265 146.353 121.969C148.129 128.529 144.515 135.784 144.515 135.784C144.515 135.784 147.073 133.183 154.629 127.438C162.185 121.692 159.794 114.789 155.755 108.83C151.716 102.871 142.596 105.878 142.596 105.878L102.888 125.743C102.896 125.716 102.9 125.696 102.9 125.696L143.557 105.236C143.557 105.236 151.356 99.7546 148.671 93.115C145.987 86.4754 141.557 80.5957 132.356 83.2592C123.154 85.9227 119.489 86.4451 119.489 86.4451C119.489 86.4451 127.683 87.7739 132.18 92.9695C134.717 95.9008 135.386 97.1689 134.124 99.4848C134.124 99.4848 132.189 98.6785 129.885 95.1693C127.581 91.66 120.542 87.2747 118.053 87.7658C115.565 88.2579 108.605 92.148 107.459 93.3202C106.313 94.4913 120.347 96.2696 123.227 99.3363C126.109 102.402 129.226 105.034 126.934 106.521C124.643 108.007 120.57 104.401 119.365 103.433C118.161 102.465 108.18 98.7088 105.381 100.191C102.581 101.672 99.1992 108.804 99.1992 108.804C99.1992 108.804 116.532 107.454 117.061 110.675C117.591 113.897 112.447 114.173 110.081 113.806C107.715 113.438 103.711 112.353 102.91 120.746C102.625 123.755 102.541 125.238 102.554 125.909L101.887 126.24C101.887 126.24 98.5281 124.874 106.059 129.088C113.589 133.303 114.987 129.508 116.045 127.422C117.103 125.339 120.305 121.424 122.711 123.706C125.119 125.986 113.969 138.925 113.969 138.925C113.969 138.925 121.928 140.366 124.792 139.006C127.657 137.646 130.26 127.577 130.14 126.065C130.021 124.552 129.337 119.245 131.912 118.29C134.487 117.335 134.903 121.321 135.819 125.375C136.736 129.425 130.129 141.56 131.778 141.331C133.426 141.102 140.72 137.842 142.572 136.157Z" fill="#0B210F"/>
<path d="M75.1884 211.081C76.267 212.698 86.9611 225.064 87.9417 225.825C88.9224 226.586 90.6887 217.93 90.6887 214.315C90.6887 210.7 89.3163 207.466 86.3723 205.469C83.9494 203.824 75.0811 197.605 71.7474 195.458C70.9845 198.173 70.2363 200.87 69.3984 203.503C71.9787 206.361 74.5308 210.096 75.1884 211.081Z" fill="#293F3A"/>
<path d="M20.805 191.661C15.9977 192.804 9.95037 196.053 8.96871 199.667C7.98808 203.281 8.28195 209.369 7.39929 211.367C6.51558 213.364 8.37991 217.264 9.36158 218.311C10.3422 219.356 9.06666 214.411 10.4412 212.794C11.352 211.72 18.9865 204.825 26.8346 200.336C27.512 196.739 28.872 193.19 30.803 189.759C26.7627 190.464 22.7673 191.195 20.805 191.661Z" fill="#293F3A"/>
<path d="M63.9278 221.45C64.9865 224.588 71.2663 245.324 72.2459 246.181C73.2265 247.038 81.0757 236.004 81.0757 236.004C81.0757 236.004 82.743 234.292 80.094 228.68C77.9379 224.111 71.8822 213.33 67.9055 207.799C66.5487 211.351 64.8938 214.719 62.6543 217.774C63.215 219.282 63.6453 220.613 63.9278 221.45Z" fill="#293F3A"/>
<path d="M17.1117 228.964C14.6992 231.472 11.4218 235.812 10.4412 239.997C9.4595 244.184 15.9341 246.084 15.9341 246.084C15.9341 246.084 18.5498 238.082 24.468 231.626C28.5634 227.162 29.7483 225.943 34.343 224.903C32.4641 222.801 30.9363 220.653 29.7442 218.477C26.0718 221.129 19.3981 226.588 17.1117 228.964Z" fill="#293F3A"/>
<path d="M79.3958 175.671C78.3662 177.367 77.4731 179.114 76.6738 180.894C78.4371 180.58 80.5661 180.651 81.8604 181.404C84.8033 183.116 87.4159 185.874 87.4159 185.874C87.4159 185.874 87.3013 178.259 80.7777 174.33C80.1013 174.789 79.6032 175.27 79.3958 175.671Z" fill="#293F3A"/>
<path d="M92.9449 193.675C92.1602 191.962 90.1 187.873 88.4316 186.921C86.8747 186.033 80.7064 187.213 75.3448 184.09C74.3224 186.76 73.469 189.483 72.6738 192.21C72.728 192.223 72.778 192.233 72.8333 192.247C77.7385 193.484 92.65 202.9 92.9439 203.281C93.2388 203.662 93.7307 195.388 92.9449 193.675Z" fill="#293F3A"/>
<path d="M49.4297 227.65C50.4989 229.937 51.3722 232.41 51.5462 233.72C51.9391 236.67 53.5085 257.215 53.2136 258.072C52.9197 258.928 62.009 253.507 63.4982 250.462C64.9863 247.419 62.2393 236.48 60.8668 232.771C60.2812 231.19 58.7701 227.433 57.1455 223.547C55.9835 224.484 54.7299 225.372 53.3439 226.194C52.0725 226.809 50.7594 227.292 49.4297 227.65Z" fill="#293F3A"/>
<path d="M34.5831 225.182C34.5467 225.142 34.5154 225.101 34.4789 225.062C34.481 225.697 34.3841 227.826 33.0033 228.963C30.8784 230.714 22.0163 239.426 19.2683 243.136C16.5213 246.845 17.9938 248.654 17.9938 248.654C17.9938 248.654 22.4071 250.079 23.4867 252.553C24.5664 255.027 24.7623 255.883 24.7623 255.883C24.7623 255.883 26.7246 254.075 28.9807 255.501C31.2369 256.927 31.2369 256.927 31.2369 256.927C31.2369 256.927 35.6513 252.839 35.8482 242.757C36.0442 232.674 37.4177 233.529 37.4177 233.529C37.4177 233.529 41.7341 234.098 41.5382 241.709C41.3422 249.319 40.0667 256.833 39.184 258.261C38.3014 259.688 45.3648 258.926 46.9342 254.647C48.5036 250.366 47.621 239.141 46.1495 233.054C45.7181 231.266 45.3314 229.692 45.0407 228.331C41.262 228.487 37.5781 227.505 34.5831 225.182Z" fill="#293F3A"/>
<path d="M74.2085 183.354C72.7766 182.32 74.4273 181.295 76.6741 180.894C77.4734 179.115 78.3665 177.368 79.3961 175.671C79.6035 175.27 80.1016 174.789 80.778 174.33C79.6191 173.633 78.2613 173.049 76.6616 172.648C66.0602 169.986 59.8368 181.481 59.0041 183.598C58.2434 185.527 56.5416 183.001 56.5416 183.001C56.5416 183.001 56.3978 176.762 56.0299 175.109C55.4787 172.639 52.4419 169.036 47.9723 167.246C47.6086 170.26 46.6228 172.866 45.0065 173.65C44.1468 174.337 43.3162 175.042 42.5034 175.755C47.6806 178.449 44.8981 178.402 43.0129 177.836C43.0129 177.836 41.9708 177.79 40.3681 177.703C37.693 180.263 35.3305 182.974 33.3349 185.787C37.6179 185.545 41.1705 185.297 42.5221 185.114C44.921 184.79 45.7589 187.397 42.6201 187.778C42.6201 187.778 36.6644 188.739 30.8057 189.76C28.8736 193.191 27.5147 196.74 26.8373 200.337C30.8234 198.056 34.8647 196.394 38.1077 196.434C41.3112 196.473 39.303 199.831 36.5383 200.905C36.1955 201.037 30.8244 202.796 26.3465 204.98C26.2986 207.501 26.6174 210.03 27.3198 212.542C27.3261 212.535 27.3334 212.528 27.3396 212.521C29.4238 210.339 32.6533 208.261 35.8912 208.642C39.129 209.022 34.1811 215.633 31.4028 217.346C30.9807 217.606 30.4065 218.001 29.7479 218.477C30.9401 220.653 32.4678 222.801 34.3468 224.904C34.3916 224.894 34.4333 224.882 34.4781 224.873C34.4781 224.873 34.4812 224.945 34.4822 225.062C34.5187 225.102 34.5489 225.142 34.5864 225.183C37.5815 227.505 41.2653 228.488 45.044 228.331C44.3458 225.057 44.2187 223.061 45.4661 222.59C46.4467 222.221 48.0932 224.788 49.4313 227.649C50.761 227.291 52.0741 226.808 53.3444 226.193C54.7315 225.371 55.9851 224.483 57.146 223.547C54.9566 218.309 52.5597 212.837 51.9407 212.128C50.8611 210.891 50.5672 206.421 55.1775 207.372C58.5591 208.069 61.1133 213.621 62.6557 217.773C64.8952 214.718 66.55 211.35 67.9069 207.798C66.9981 206.534 66.1968 205.544 65.5767 204.965C62.2409 201.854 61.8491 199.667 64.8899 200.048C66.078 200.195 67.7453 201.671 69.4002 203.504C70.2381 200.871 70.9863 198.174 71.7491 195.458C71.0332 194.998 70.5684 194.721 70.4819 194.721C64.8681 194.721 63.1413 189.858 72.6766 192.211C73.4717 189.484 74.3252 186.761 75.3475 184.091C74.9619 183.867 74.5816 183.624 74.2085 183.354ZM41.9323 195.957C40.0679 195.767 38.7924 194.245 40.8527 193.104C42.9129 191.961 47.0334 193.104 47.0334 193.104C48.7998 196.337 43.7966 196.149 41.9323 195.957ZM56.8438 196.718C55.1754 196.243 53.7039 192.946 56.8438 192.597C56.8438 192.597 61.2592 193.96 61.2582 197.098C61.2582 198.292 58.5112 197.193 56.8438 196.718Z" fill="#1A2824"/>
<path d="M47.9712 167.246C46.5383 166.673 44.9616 166.281 43.2692 166.177C36.5862 165.768 34.5593 167.666 31.632 171.326C31.0495 172.046 29.5342 174.661 28.983 175.601C26.8623 179.215 33.4953 171.415 40.8536 174.934C41.4789 175.233 42.0218 175.504 42.5022 175.755C43.3161 175.041 44.1467 174.337 45.0054 173.65C46.6207 172.867 47.6075 170.261 47.9712 167.246Z" fill="#293F3A"/>
<path d="M26.3447 204.979C24.4137 205.92 22.6494 206.939 21.526 207.942C17.7983 211.273 14.8554 216.409 13.1881 219.738C11.5196 223.067 9.45938 224.018 8.2818 225.444C7.10526 226.872 8.18384 230.2 8.57672 232.293C8.96855 234.386 9.26347 235.527 9.26347 235.527C9.26347 235.527 16.8177 225.444 19.8586 221.544C22.8901 217.658 25.4089 214.54 27.318 212.541C26.6156 210.029 26.2967 207.5 26.3447 204.979Z" fill="#293F3A"/>
<path d="M40.3662 177.703C35.5704 177.444 25.7433 176.833 23.6851 176.061C20.9381 175.03 18.8779 174.84 15.0523 178.834C11.2267 182.83 12.6398 185.623 9.99076 186.383C8.11288 186.923 22.9046 186.374 33.333 185.786C35.3276 182.973 37.6911 180.262 40.3662 177.703Z" fill="#293F3A"/>
<path d="M56.5408 183.001L58.2603 184.317C58.2603 184.317 54.0012 189.591 49.5722 200.308C47.9361 204.268 40.1786 223.367 38.9635 227.069C38.3675 228.885 43.7552 210.847 47.141 203.508C50.5268 196.168 56.5408 183.001 56.5408 183.001Z" fill="#638170"/>
<path d="M86.6657 33.4046C85.7831 32.6448 84.8869 31.9456 84.0115 31.3807C81.8616 31.5757 80.2734 32.1881 80.2734 32.1881C80.2734 32.1881 83.5352 34.0735 86.6657 33.4046Z" fill="#0F2E17"/>
<path d="M128.567 51.0297C122.639 43.3716 117.739 44.9257 113.918 46.7526C110.873 48.2086 107.102 51.6128 105.016 51.5249C104.485 51.5026 104.062 51.2541 103.789 50.6902C103.789 50.6902 104.036 49.1998 105.999 48.2581C107.962 47.3154 112.665 39.5865 109.206 33.9038C105.747 28.2201 102.744 29.0568 99.9572 28.8274C99.8332 28.8173 99.7071 28.791 99.582 28.7759C100.388 30.7341 98.443 33.7624 99.1944 35.2204C103.363 43.3039 96.068 52.3979 99.1944 62.5022C99.2631 63.0358 99.3653 63.5612 99.4924 64.0785C100.112 63.642 101.065 63.8249 101.668 64.9889C102.503 66.6016 104.499 70.6343 105.306 73.7838C105.351 73.7272 105.403 73.6746 105.447 73.6171C105.403 73.6746 105.351 73.7272 105.306 73.7838C105.554 74.7518 105.695 75.641 105.648 76.3452C105.447 79.4018 107.244 89.7356 100.799 95.011C100.799 95.011 108.015 92.3526 109.405 92.8204C110.796 93.2883 114.923 91.2674 115.855 89.2788C116.788 87.2893 116.835 79.0037 113.372 74.2698C110.756 70.6928 108.669 66.6956 108.86 64.1543C109.052 61.6121 113.589 65.0779 114.727 67.026C115.865 68.9741 120.957 73.6029 121.32 84.5288C121.378 86.2445 129.032 78.1266 129.84 75.9229C129.84 75.9229 131.736 72.7147 128.781 69.3278C124.931 64.9172 117.266 61.5686 115.829 59.1082C114.391 56.6478 116.759 56.1597 118.743 57.6431C120.726 59.1274 128.052 60.4591 130.891 69.1156C131.608 71.2971 134.821 59.1052 128.567 51.0297Z" fill="#08190A"/>
<path d="M76.9518 41.3253C74.6196 40.4402 68.1543 36.5439 63.5513 37.9878C58.9483 39.4327 56.4129 43.9393 56.1701 44.4779C55.9273 45.0185 63.074 44.3425 71.7746 47.2839C74.3153 48.1427 76.5496 48.8157 78.4837 49.4017C79.9177 47.7719 81.4412 46.2077 82.9658 44.6567C80.4429 43.2461 77.9262 41.6941 76.9518 41.3253Z" fill="#0F2E17"/>
<path d="M64.9537 48.9977C63.3259 49.0786 55.3089 48.7421 53.6447 50.1981C51.9815 51.6531 50.8164 60.4176 50.8164 60.4176C50.8164 60.4176 61.7638 56.0202 65.8895 56.3375C68.2144 56.5163 70.7405 56.8791 73.0081 57.3499C73.9012 55.4897 75.0017 53.7659 76.2376 52.1331C71.6544 50.6558 65.976 48.9462 64.9537 48.9977Z" fill="#0F2E17"/>
<path d="M89.3215 88.5603C86.8038 92.3797 83.7129 96.6509 83.7129 96.6509C83.7129 96.6509 96.2057 97.2379 97.4896 96.8034C98.7714 96.37 100.412 93.4387 101.356 90.754C102.212 88.3188 102.189 82.0288 101.328 77.1019C98.6078 78.7206 95.4398 79.7725 92.8449 80.4505C92.1321 83.3545 90.8868 86.1847 89.3215 88.5603Z" fill="#0F2E17"/>
<path d="M86.6671 33.4045C83.5377 34.0734 80.2748 32.188 80.2748 32.188C80.2748 32.188 81.862 31.5756 84.0129 31.3806C83.0104 30.7329 82.035 30.259 81.1429 30.0872C76.5806 29.2082 70.0278 30.3692 66.7253 36.2449C66.2022 37.1755 75.9616 36.9956 78.4418 38.6123C78.4418 38.6123 82.2997 40.0855 85.4562 42.1054C87.1371 40.3523 88.7462 38.5709 90.1509 36.6824C89.0786 35.6154 87.8864 34.4544 86.6671 33.4045Z" fill="#0F2E17"/>
<path d="M71.7998 60.453C69.6291 59.8639 67.3323 59.3778 65.3512 59.4769C60.4669 59.7224 52.65 59.6971 49.7373 61.914C47.6104 63.5328 49.7185 71.4475 49.7185 71.4475C49.7185 71.4475 62.1488 67.144 66.0463 67.6018C69.9438 68.0585 68.7443 70.0713 66.3173 70.4573C63.8891 70.8422 49.8269 74.501 49.8269 74.501C49.8269 74.501 53.9766 80.889 50.9389 83.0988C47.9011 85.3086 56.1015 84.1921 57.3551 88.1065C58.2034 90.7549 68.4682 79.1601 69.2268 78.0668C69.2268 78.0668 71.8738 75.6661 71.7852 79.0995C71.6966 82.533 62.9367 90.7286 59.2726 91.3874C55.6065 92.0462 65.5023 93.9246 66.3162 93.8842C67.1301 93.8428 74.5916 89.8808 76.6873 82.2309C77.102 80.7142 77.4678 79.4511 77.7971 78.3962C72.572 74.4899 69.8667 67.3886 71.7998 60.453Z" fill="#0F2E17"/>
<path d="M80.5108 80.0223C80.1002 80.954 79.5542 81.9735 78.8528 83.0718C75.7901 87.8684 68.1973 94.4746 68.1973 94.4746L77.1229 97.5624C77.1229 97.5624 81.5394 94.6797 83.5934 92.384C85.49 90.2631 87.2387 86.0172 87.8087 81.4046C85.1576 81.5451 82.6888 81.0358 80.5108 80.0223Z" fill="#0F2E17"/>
<path d="M99.0111 66.1797C98.7068 65.1945 98.9903 64.4347 99.4926 64.08C99.3654 63.5626 99.2633 63.0372 99.1945 62.5037C96.0682 52.3993 103.363 43.3054 99.1945 35.2219C98.4432 33.7638 100.388 30.7356 99.5822 28.7773C97.8783 28.5682 96.1109 27.9134 94.5676 27.4597C94.1236 29.523 93.3691 31.4125 92.4052 33.1859C94.4175 34.36 95.9963 36.5769 96.0192 37.6277C96.0578 39.3677 95.7649 41.0168 94.0944 40.3094C93.4296 40.0275 91.9623 38.4896 90.1501 36.685C88.7442 38.5735 87.1363 40.3549 85.4553 42.108C87.353 43.3216 88.9975 44.7321 89.3997 46.1377C90.024 48.3202 86.4891 46.6267 82.9678 44.6594C81.4432 46.2104 79.9197 47.7746 78.4857 49.4044C83.1752 50.8261 86.0608 51.7254 86.9602 53.436C88.2326 55.853 84.0454 54.9022 82.0445 54.105C81.2994 53.8089 78.962 53.0127 76.241 52.1356C75.004 53.7675 73.9046 55.4923 73.0115 57.3525C75.5897 57.887 77.8334 58.561 79.0547 59.2683C81.388 60.6182 81.1546 61.9065 79.1037 62.2208C77.8855 62.4077 74.9811 61.3195 71.8027 60.4566C69.8696 67.3922 72.5749 74.4936 77.799 78.3989C79.1329 74.1298 79.8717 73.3871 80.8346 74.2692C81.7434 75.1018 81.7882 77.1369 80.5137 80.0257C82.6917 81.0392 85.1594 81.5494 87.8116 81.408C88.0283 79.6518 88.0804 77.8452 87.896 76.0789C87.228 69.6758 87.7073 66.4333 89.9666 66.9527C92.2249 67.473 93.4838 71.241 93.5056 75.1645C93.5161 76.8994 93.2785 78.6909 92.846 80.4552C95.4408 79.7761 98.6089 78.7253 101.329 77.1066C101.24 76.6003 101.145 76.1032 101.039 75.6313C99.8979 70.568 99.6051 68.1015 99.0111 66.1797Z" fill="#091E0C"/>
<path d="M88.1989 32.8469C89.5808 32.088 91.0845 32.4144 92.4038 33.1834C93.3678 31.4101 94.1223 29.5205 94.5662 27.4572C93.6815 27.1976 92.8686 27.0025 92.186 26.9995C90.2269 26.9935 86.5326 31.1878 84.2566 31.3545C84.1722 31.3605 84.094 31.3717 84.0117 31.3797C84.8871 31.9446 85.7833 32.6428 86.666 33.4036C87.186 33.2935 87.7018 33.1197 88.1989 32.8469Z" fill="#0F2E17"/>
<path d="M50.2898 84.0264C49.5801 84.5832 67.742 75.0092 72.8421 72.3204C72.718 72.0607 72.5961 71.8 72.4846 71.5343C67.5533 74.2514 53.2692 81.6893 50.2898 84.0264Z" fill="#507153"/>
<path d="M94.1216 59.1594C95.6482 58.155 97.0947 57.1739 98.4067 56.2665C98.4213 55.7603 98.4526 55.2561 98.4963 54.7539C96.4392 56.2807 93.9308 58.0893 91.2162 59.9233C84.2017 64.6622 75.8774 69.5486 73.7827 70.8006C73.4941 70.9723 73.047 71.2239 72.4863 71.5341C72.5978 71.7999 72.7198 72.0606 72.8438 72.3203C73.2533 72.104 73.5889 71.9272 73.8129 71.809C75.5501 70.8915 85.8826 64.5803 94.1216 59.1594Z" fill="#415942"/>
<path d="M103.789 50.6902C103.789 50.6902 101.693 52.3786 98.4939 54.7542C98.4501 55.2564 98.4189 55.7606 98.4043 56.2668C102.313 53.5639 105.015 51.5248 105.015 51.5248L103.789 50.6902Z" fill="#445E45"/>
<path d="M209.329 175.557C204.972 172.46 209.101 164.291 209.101 164.291L204.826 161.498C203.511 161.897 189.474 160.453 190.77 158.505C194.662 152.652 209.197 164.208 208.994 161.559C208.79 158.909 209.352 152.611 207.342 151.354C205.331 150.096 190.893 150.421 188.013 151.577C187.176 151.913 186.124 152.264 185.01 152.55C184.896 152.85 184.785 153.151 184.647 153.442C181.289 160.315 174.988 164.325 167.475 166.056C167.045 169.883 167.16 174.952 167.677 182.265C168.321 191.372 172.518 193.519 172.889 193.362C173.262 193.208 182.576 195.143 182.032 193.617C181.489 192.092 181.434 186.988 178.614 181.113C175.795 175.24 175.004 167.281 175.004 167.281C174.569 165.499 178.446 161.323 179.383 165.331C182.91 180.417 192.323 189.145 192.323 189.145C192.323 189.145 192.83 191.191 199.209 183.205C206.941 173.535 212.286 177.659 209.329 175.557Z" fill="#293F3A"/>
<path d="M125.91 164.94C126.166 165.218 132.483 178.062 132.57 176.309C132.912 169.38 135.05 165.961 137.135 162.96C133.485 161.519 130.029 159.743 126.946 157.672C124.841 160.467 125.91 164.94 125.91 164.94Z" fill="#293F3A"/>
<path d="M136.292 179.244C139.355 184.247 150.616 189.815 150.616 189.815C150.616 189.815 148.934 186.115 149.223 183.041C149.513 179.968 149.334 173.478 149.505 172.168C149.604 171.397 149.484 169.148 150.033 166.447C147.338 166.036 144.648 165.428 142.016 164.644C138.948 169.706 134.435 176.213 136.292 179.244Z" fill="#293F3A"/>
<path d="M180.897 123.375C184.743 121.555 188.214 120.67 188.214 120.67C188.214 120.67 190.926 118.172 180.839 116.131C180.445 118.423 180.53 120.859 180.897 123.375Z" fill="#293F3A"/>
<path d="M153.964 166.911C152.887 171.184 151.551 176.97 151.559 178.703C151.569 181.515 153.838 189.031 155.092 189.278C156.348 189.524 167.545 193.325 167.545 193.325C167.545 193.325 164.478 184.007 163.808 181.595C163.361 179.989 162.258 172.614 162.434 166.877C159.687 167.139 156.841 167.142 153.964 166.911Z" fill="#293F3A"/>
<path d="M185.887 148.179C190.956 147.139 209.382 147.601 209.382 147.601C209.382 147.601 209.423 145.404 206.807 140.685C204.189 135.964 201.467 140.494 200.606 136.728C199.264 130.853 196.964 128.96 194.43 127.817C191.896 126.675 188.461 126.138 184.269 127.948C183.568 128.251 182.83 128.622 182.072 129.038C183.744 135.628 186.173 142.389 185.887 148.179ZM185.064 138.651C188.22 135.93 190.123 137.629 190.123 137.629C190.123 137.629 188.21 139.279 186.266 139.961C184.321 140.642 185.064 138.651 185.064 138.651Z" fill="#293F3A"/>
<path d="M184.648 153.441C184.787 153.15 184.897 152.85 185.011 152.55C182.292 153.25 179.208 153.557 178 152.241C176.298 150.386 181.071 149.425 185.492 148.268C185.612 148.236 185.747 148.207 185.887 148.178C186.172 142.388 183.744 135.627 182.072 129.038C177.002 131.827 171.037 136.779 168.866 138.799C166.368 141.119 165.932 140.332 165.932 140.332C165.378 138.982 166.359 137.25 172.831 129.176C174.829 126.684 177.972 124.758 180.898 123.373C180.53 120.856 180.446 118.419 180.839 116.129C180.323 116.024 179.783 115.921 179.196 115.819C167.17 113.731 162.837 125.443 161.881 127.763C160.927 130.083 158.566 131.619 157.396 129.971C156.226 128.322 159.498 122.177 157.361 120.033C155.222 117.89 144.242 121.049 144.021 127.718C143.801 134.389 148.172 138.593 150.703 138.735C153.233 138.88 152.959 141.941 152.959 141.941C152.959 141.941 151.444 144.261 149.706 142.986C145.827 140.14 142.73 140.131 137.797 142.224C132.866 144.319 127.456 149.57 126.032 150.878C124.607 152.187 123.675 156.4 125.406 155.238C127.139 154.075 129.541 152.834 133.229 150.318C136.917 147.801 140.701 146.697 141.743 147.459C142.785 148.222 139.051 150.983 137.693 151.451C135.786 152.106 129.615 154.596 127.181 157.362C127.095 157.461 127.023 157.566 126.945 157.67C130.027 159.741 133.483 161.518 137.133 162.958C137.555 162.35 137.975 161.758 138.377 161.161C140.767 157.603 144.583 154.479 146.838 154.694C149.092 154.91 145.925 157.808 142.982 163.005C142.687 163.527 142.356 164.078 142.015 164.643C144.648 165.427 147.337 166.034 150.032 166.446C150.416 164.557 151.124 162.45 152.474 160.465C155.756 155.64 155.483 161.69 155.281 162.031C155.204 162.162 154.634 164.242 153.961 166.909C156.838 167.141 159.684 167.138 162.43 166.875C162.517 163.996 162.926 161.529 163.902 160.41C166.823 157.059 168.77 159.367 167.889 163.45C167.716 164.253 167.58 165.118 167.473 166.056C174.989 164.325 181.291 160.314 184.648 153.441ZM156.302 154.177C155.875 152.219 158.523 150.435 158.523 150.435L158.979 150.931C160.562 153.779 156.728 156.136 156.302 154.177ZM175.061 142.314C174.996 140.376 180.854 139.477 180.854 139.477C182.822 139.94 183.135 140.935 180.506 142.271C177.3 143.9 175.126 144.252 175.061 142.314Z" fill="#1A2824"/>
<path d="M127.359 10.482C127.342 10.482 127.327 10.4789 127.31 10.4799C119.069 10.6224 118.186 14.1893 116.274 16.9003C114.361 19.6113 110.829 21.7514 109.653 23.749C108.476 25.7466 110.83 32.0235 109.653 34.4495C109.61 34.5374 109.577 34.6223 109.536 34.7102C110.672 34.1535 111.966 33.6563 113.318 33.2087C113.506 32.6115 113.625 31.981 113.625 31.3111C113.625 26.6025 121.571 25.1757 123.485 26.1751C125.397 27.1734 127.016 28.4576 125.25 29.7419C124.131 30.5563 118.344 31.5425 113.317 33.2097C112.177 36.8079 108.18 39.0167 108.18 39.0167C108.18 39.0167 108.463 37.0261 109.535 34.7112C108.23 35.3508 107.135 36.0662 106.415 36.8766C102.736 41.0143 100.088 48.4006 104.501 55.2817C105.201 56.372 110.829 46.2928 114.067 44.7236C114.067 44.7236 124.073 36.8766 128.783 38.0174C133.492 39.1592 118.481 46.0079 116.127 47.8621C113.773 49.7172 105.68 53.9974 104.503 59.5619C103.326 65.1264 106.71 70.4059 107.152 70.9758C107.592 71.5467 111.124 63.8421 119.512 56.7074C127.899 49.5727 131.872 44.7226 135.257 44.8651C135.297 44.8661 135.323 44.8752 135.361 44.8782C135.435 32.6853 138.512 19.3637 127.359 10.482Z" fill="#777E52"/>
<path d="M113.316 33.2073C111.965 33.6549 110.669 34.153 109.534 34.7088C108.462 37.0237 108.18 39.0142 108.18 39.0142C108.18 39.0142 112.176 36.8064 113.316 33.2073Z" fill="#777E52"/>
<path d="M133.047 50.2869C130.987 51.8561 118.185 62.985 117.302 64.6977C116.418 66.4094 111.269 74.3999 111.857 76.9684C112.446 79.537 121.275 85.9573 121.275 85.9573C121.275 85.9573 123.031 72.1487 125.836 68.1221C129.217 63.271 134.06 57.9743 136.873 56.4222C136.887 56.4152 136.898 56.4091 136.913 56.402C135.984 53.7698 135.565 50.9629 135.421 48.0579C134.695 48.9006 133.78 49.7291 133.047 50.2869Z" fill="#777E52"/>
<path d="M138.672 60.0023C136.109 62.6163 130.998 66.5358 128.929 70.5482C126.28 75.6843 121.587 83.6566 122.258 87.9561C122.748 91.0955 132.607 93.663 132.607 93.663C132.607 93.663 135.35 78.3963 138.172 74.686C140.994 70.9756 142.467 73.4017 141.436 76.1127C140.407 78.8237 135.992 95.3747 135.992 95.3747C135.992 95.3747 145.41 94.9473 145.999 99.3699C146.587 103.794 150.268 94.7492 155.269 95.8031C158.654 96.5175 152.179 79.1097 151.444 77.6829C151.444 77.6829 150.413 73.5452 154.093 75.6853C157.771 77.8254 161.45 91.6654 159.978 95.8031C158.507 99.9419 166.453 90.952 166.895 90.0962C167.337 89.2403 167.484 79.2531 160.42 72.5459C153.357 65.8396 152.327 64.1279 154.241 63.557C156.153 62.9861 159.451 65.2091 162.628 70.8342C166.012 76.8271 168.661 88.5259 168.661 88.5259L177.343 81.2498C177.343 81.2498 176.847 75.0174 175.578 71.5475C173.959 67.1238 167.779 60.5611 160.421 57.4226C159.368 56.973 158.409 56.5395 157.527 56.1182C152.954 62.5759 142.905 65.5486 138.672 60.0023Z" fill="#777E52"/>
<path d="M191.456 36.7318C189.851 34.5917 180.874 29.5981 173.664 30.3114C168.216 30.85 162.628 30.5964 159.979 28.8837C157.33 27.172 163.804 24.6035 166.6 24.6035C169.396 24.6035 177.464 22.1643 189.556 28.3128C191.456 29.2788 187.202 16.6129 185.288 14.4728C185.288 14.4728 182.934 10.6211 177.489 11.6194C170.398 12.9198 162.185 18.7541 158.653 18.7541C155.121 18.7541 156.004 16.0431 158.8 14.9023C161.596 13.7605 167.416 7.07138 178.519 9.33779C181.315 9.90869 169.984 -0.649374 157.476 0.918825C155.554 1.15931 153.915 1.51903 152.51 1.97069C149.851 13.9888 155.54 25.2087 158.37 36.8369C162.125 37.0935 168.666 37.7675 171.308 39.4428C174.51 41.4717 186.813 45.8035 188.699 55.536C188.699 55.536 190.115 46.5765 191.456 45.4357C192.794 44.2939 193.059 38.8719 191.456 36.7318Z" fill="#777E52"/>
<path d="M159.776 49.7829C160.777 50.1537 161.791 50.6104 162.774 51.1429C167.777 53.8539 172.192 58.5626 174.84 63.4137C177.489 68.2648 180.285 73.9728 180.285 73.9728C180.285 73.9728 188.378 61.5585 188.672 59.9893C188.967 58.4201 186.76 54.9957 184.405 52.4272C182.049 49.8587 173.957 45.5784 167.776 43.7243C163.819 42.537 161.228 41.6296 159.232 40.989C159.725 43.8809 159.963 46.8061 159.776 49.7829Z" fill="#777E52"/>
<path d="M152.512 1.97168C145.245 4.3068 144.333 9.14882 144.087 13.333C143.853 17.3132 145.301 23.1979 143.961 25.2774C143.619 25.8069 143.098 26.0898 142.322 26.0322C142.322 26.0322 140.85 24.8904 140.997 22.3229C141.144 19.7594 135.574 10.3785 127.361 10.4826C138.514 19.3654 135.438 32.687 135.363 44.8789C137.403 45.0214 136.721 46.5593 135.426 48.0588C135.569 50.9638 135.989 53.7697 136.917 56.4029C139.749 54.857 140.994 55.8634 140.115 58.1359C139.922 58.635 139.392 59.2716 138.674 60.0031C142.908 65.5504 152.957 62.5777 157.528 56.118C152.253 53.599 150.101 51.571 151.74 49.8604C153.214 48.3225 156.427 48.5438 159.779 49.7836C159.966 46.8068 159.728 43.8816 159.237 40.9897C158.116 40.63 157.181 40.3521 156.303 40.1581C153.507 39.5397 153.654 36.5903 156.598 36.7338C157.059 36.756 157.674 36.7914 158.373 36.8388C155.542 25.2097 149.853 13.9898 152.512 1.97168Z" fill="#6E724C"/>
<path d="M145.754 40.9656C145.036 32.3698 143.96 25.2765 143.96 25.2765L142.32 26.0313C142.32 26.0313 143.897 34.5038 144.849 44.3889C145.457 50.69 145.819 57.5549 146.029 62.4949C146.424 62.4879 146.792 62.4727 147.143 62.4384C146.866 56.6485 146.366 48.2811 145.754 40.9656Z" fill="#4B664C"/>
<path d="M146.029 62.4951C146.152 65.389 146.225 67.6261 146.266 68.6921C146.414 72.5802 145.77 95.6425 146.619 100.587C146.815 101.727 147.306 73.3007 147.378 69.263C147.393 68.398 147.307 65.8709 147.142 62.4385C146.791 62.4728 146.423 62.489 146.029 62.4951Z" fill="#507153"/>
<path d="M49.041 118.161C49.041 118.161 49.4495 118.096 50.2082 118.022C50.1696 117.738 50.1206 117.454 50.0623 117.169L49.041 118.161Z" fill="#293F3A"/>
<path d="M97.835 125.602C97.835 125.602 72.9974 114.739 50.9036 116.352L50.0605 117.17C50.1189 117.454 50.1689 117.737 50.2064 118.021C54.9866 117.557 74.1989 116.713 100.241 129.138C101.605 129.789 97.835 125.602 97.835 125.602Z" fill="#1F302C"/>
<path d="M3.51985 133.093C4.10864 131.608 6.61075 129.029 9.32127 126.913C8.99614 125.69 8.73769 124.092 8.68767 122.411C2.72159 127.821 2.80079 134.908 3.51985 133.093Z" fill="#293F3A"/>
<path d="M18.9094 117.414C18.5666 117.501 18.2195 117.589 17.8454 117.684C13.8177 118.698 10.8581 120.445 8.68945 122.411C8.73947 124.092 8.99792 125.691 9.32306 126.914C10.0129 126.376 10.7132 125.866 11.4021 125.414C12.7579 121.944 16.4198 119.057 18.9094 117.414Z" fill="#293F3A"/>
<path d="M18.9094 117.413C19.518 117.011 20.0568 116.682 20.4736 116.44C21.2062 114.81 21.9701 113.174 22.687 111.548C20.5611 111.735 18.0028 112.368 13.5279 113.356C9.58147 114.228 8.57271 118.519 8.68838 122.411C10.857 120.444 13.8166 118.697 17.8444 117.683C18.2195 117.589 18.5665 117.501 18.9094 117.413Z" fill="#293F3A"/>
<path d="M10.8762 127.768C10.9158 126.961 11.1034 126.174 11.3993 125.415C10.7105 125.866 10.0102 126.377 9.32031 126.914C9.92786 129.195 10.7605 130.15 10.8762 127.768Z" fill="#293F3A"/>
<path d="M49.0401 142.044C52.7677 141.292 60.223 134.996 57.477 133.094C56.0597 132.113 51.7756 128.45 48.7358 125.054C47.6593 127.219 46.2024 129.556 44.4746 131.768C45.5157 136.767 46.8037 142.495 49.0401 142.044Z" fill="#293F3A"/>
<path d="M35.0698 139.892C34.3851 147.893 32.9512 157.635 32.9512 157.635C32.9512 157.635 42.3687 153.45 42.5083 152.778C42.6053 152.314 41.9404 142.564 41.1317 135.506C39.2653 137.313 37.2176 138.852 35.0698 139.892Z" fill="#293F3A"/>
<path d="M40.0148 113.88C32.1667 115.972 34.3249 113.88 29.0278 112.358C26.4153 111.607 24.7552 111.368 22.6866 111.55C21.9696 113.175 21.2058 114.811 20.4731 116.441C21.0317 116.116 21.3756 115.939 21.3756 115.939C21.3756 115.939 31.6466 114.111 20.1866 117.086C19.2299 119.243 18.3525 121.387 17.7376 123.484C19.4884 123.82 20.5273 124.87 20.7868 124.784C20.9598 124.727 19.1945 126.734 16.8633 129.027C16.8945 132.161 18.0148 135.097 20.9807 137.692C21.1766 137.381 21.3735 137.126 21.5705 136.955C23.8089 134.999 23.9319 135.849 24.4592 140.08C26.8592 141.314 29.2946 141.548 31.6675 141.066C31.8436 137.32 32.0541 133.7 31.9707 131.764C31.7748 127.197 33.7371 126.437 35.1096 130.052C35.6077 131.361 35.4597 135.347 35.07 139.893C37.2178 138.854 39.2655 137.315 41.1319 135.507C40.7693 132.343 40.3785 129.72 40.0137 128.72C38.8372 125.485 40.7985 123.203 42.5086 124.785C43.1922 125.419 43.7789 128.431 44.474 131.768C46.2018 129.558 47.6587 127.219 48.7352 125.054C45.8829 121.866 44.1259 118.913 46.8812 118.637C47.9004 118.535 49.0707 118.833 50.3035 119.374C50.2785 117.388 49.6991 115.401 48.8071 113.415C44.3802 113.153 40.0148 113.88 40.0148 113.88Z" fill="#1A2824"/>
<path d="M56.6932 115.972C55.0018 114.255 51.8901 113.595 48.8086 113.414C49.7006 115.4 50.2801 117.387 50.3051 119.373C55.9564 121.854 62.925 129.519 62.7124 127.957C62.4519 126.056 60.8137 120.158 56.6932 115.972Z" fill="#293F3A"/>
<path d="M18.9077 117.414C16.4181 119.056 12.7562 121.943 11.4004 125.414C12.5123 124.684 13.5878 124.1 14.5069 123.772C15.7668 123.322 16.8423 123.311 17.7364 123.483C18.3513 121.386 19.2287 119.242 20.1854 117.085C19.7873 117.189 19.36 117.299 18.9077 117.414Z" fill="#293F3A"/>
<path d="M24.4595 140.079C24.5325 140.668 24.6138 141.322 24.7097 142.044C25.4954 147.95 16.4697 157.445 20.0004 157.636C23.5331 157.826 33.181 156.015 31.9565 153.138C31.2499 151.48 31.4271 146.155 31.6668 141.065C29.2939 141.547 26.8595 141.312 24.4595 140.079Z" fill="#293F3A"/>
<path d="M16.863 129.027C13.8961 131.945 10.0111 135.327 8.03317 135.504C4.50146 135.819 -1.58133 140.325 0.380966 142.064C2.34326 143.804 -0.991493 153.26 2.73509 152.778C6.46376 152.297 10.9761 158.586 13.7231 156.303C16.2575 154.196 18.6262 141.404 20.9803 137.691C18.0145 135.096 16.8953 132.161 16.863 129.027Z" fill="#293F3A"/>
<path d="M161.318 83.1614C162.751 82.7189 164.426 82.3581 166.234 82.1581C171.384 81.5872 174.425 80.8738 176.829 80.5889C179.232 80.3039 175.111 77.3757 172.857 77.307C171.411 77.2635 167.281 77.0443 162.953 77.3787C162.893 77.4737 162.816 77.5596 162.764 77.6586C162.094 79.4784 161.633 81.3144 161.318 83.1614Z" fill="#638170"/>
<path d="M140.633 72.4859C140.196 71.8968 139.715 71.3118 139.158 70.7429C133.713 65.1784 121.793 70.6004 121.646 74.0248C121.499 77.4492 129.151 80.3026 129.445 82.5862C129.739 84.8688 126.502 85.2972 123.853 84.013C121.204 82.7287 108.255 75.88 99.5733 86.5815C90.8904 97.2821 95.6487 97.4255 95.6487 97.4255C95.6487 97.4255 107.053 91.8065 115.563 93.3353C118.767 93.9102 121.25 94.3841 123.207 94.8024C129.524 87.8132 138.874 82.5216 140.633 72.4859Z" fill="#638170"/>
<path d="M127.332 130.201C125.145 128.08 124.106 125.402 123.161 122.607C122.101 123.107 121.058 123.523 120.176 123.821C116.791 124.962 104.136 135.379 103.4 137.946C102.663 140.514 108.109 145.508 110.022 147.934C111.934 150.359 115.312 129.669 123.265 131.811C125.914 132.524 114.996 144.163 113.552 144.795L112.081 150.36C112.081 150.36 122.064 154.317 120.763 160.204C119.88 164.2 121.22 156.699 135.478 159.28C147.25 161.411 146.073 159.28 146.073 159.28C146.073 159.28 147.048 147.552 140.78 133.854C136.012 135.079 131.154 134.318 127.332 130.201Z" fill="#638170"/>
<path d="M160.87 86.9069C158.832 87.1029 156.473 86.9685 156.671 86.0106C156.862 85.0841 158.67 83.9797 161.32 83.1612C161.635 81.3141 162.095 79.4782 162.765 77.6584C162.816 77.5593 162.894 77.4724 162.955 77.3785C160.532 77.5664 158.048 77.9251 155.935 78.591C150.049 80.4462 147.396 82.7479 146.307 88.0669C145.821 90.4485 142.691 89.5785 142.691 89.5785C142.691 89.5785 140.042 87.1524 142.102 85.1548C143.952 83.3613 144.482 77.6604 140.635 72.4869C138.876 82.5226 129.524 87.8143 123.21 94.8025C128.537 95.9402 129.851 96.6576 130.282 97.8065C130.282 97.8065 130.528 98.8048 126.554 98.6623C125.165 98.6128 122.866 98.6118 120.199 98.7139C119.756 99.4181 119.351 100.144 118.997 100.899C117.994 102.843 117.48 105.253 117.559 107.683C119.165 106.786 122.862 104.944 124.003 106.272C125.475 107.985 123.329 109.291 119.294 110.267C118.766 110.395 118.318 110.469 117.928 110.506C118.316 112.143 119.002 113.706 120.038 115.046C120.667 116.063 121.166 117.122 121.602 118.197C125.644 116.21 129.299 114.498 129.299 116.973C129.299 119.083 126.163 121.19 123.16 122.609C124.105 125.405 125.144 128.082 127.331 130.203C131.153 134.32 136.011 135.081 140.78 133.856C140.085 132.338 139.306 130.797 138.423 129.244C136.068 125.108 142.69 125.82 143.72 127.675C143.72 127.675 144.873 129.211 146.337 131.544C149.089 129.971 151.64 127.864 153.74 125.528C151.134 122.694 148.909 120.621 146.812 119.114C142.839 116.26 142.691 112.836 147.841 113.549C150.248 113.883 153.78 117.301 156.995 121.11C157.192 120.774 157.38 120.436 157.554 120.098C159.165 117.196 160.063 114.195 160.542 111.128C158.329 109.659 156.672 108.603 156.523 108.555C156.082 108.411 151.078 103.417 157.701 105.13C158.882 105.435 159.977 105.854 160.988 106.334C161.094 103.681 161.008 100.992 160.904 98.2895C158.282 97.5943 156.951 97.0941 157.994 95.9978C158.562 95.4006 159.546 94.9843 160.775 94.7317C160.696 92.1238 160.675 89.5098 160.87 86.9069ZM144.603 101.757V100.992C144.603 100.992 148.282 100.564 149.46 102.562C150.637 104.558 145.487 105.377 144.603 101.757Z" fill="#5A7565"/>
<path d="M184.04 89.2916C184.04 89.2916 181.244 84.2981 176.977 83.7272C172.709 83.1563 165.448 85.5894 163.292 86.4382C162.787 86.6362 161.866 86.811 160.869 86.907C160.674 89.5099 160.695 92.1239 160.775 94.7318C163.366 94.2014 167.062 94.4135 170.355 95.2845C175.211 96.5688 180.361 97.1397 187.278 103.988C188.734 105.43 184.04 89.7201 184.04 89.2916Z" fill="#638170"/>
<path d="M160.987 106.334C165.646 108.545 168.505 112.156 169.472 112.976C170.649 113.976 175.61 119.682 178.28 122.108C180.949 124.533 182.421 128.957 182.421 128.957C182.421 128.957 187.704 115.833 186.393 109.267C185.511 104.843 174.474 102.561 167.852 100.278C165.144 99.3444 162.717 98.7705 160.902 98.2896C161.007 100.992 161.092 103.681 160.987 106.334Z" fill="#638170"/>
<path d="M146.336 131.542C148.098 134.354 150.312 138.328 151.518 142.227C153.726 149.361 157.699 153.784 158.435 155.497C159.171 157.207 165.645 148.647 166.087 148.504C166.529 148.362 168.441 143.411 161.82 135.113C158.694 131.198 156.066 128.059 153.739 125.526C151.638 127.863 149.087 129.969 146.336 131.542Z" fill="#638170"/>
<path d="M156.994 121.109C160.658 125.451 163.911 130.3 164.615 131.667C165.94 134.237 170.649 144.51 170.649 144.51C170.649 144.51 177.27 132.952 178.154 131.811C179.037 130.669 175.064 122.536 172.857 120.111C171.394 118.503 164.892 114.015 160.543 111.127C160.063 114.194 159.165 117.195 157.554 120.097C157.379 120.435 157.191 120.773 156.994 121.109Z" fill="#638170"/>
<path d="M117.927 110.505C115.871 110.697 115.677 109.685 116.791 108.126C116.791 108.126 117.091 107.941 117.556 107.682C117.479 105.253 117.992 102.842 118.994 100.899C119.348 100.144 119.754 99.418 120.197 98.7137C115.238 98.9037 108.983 99.4564 104.772 100.755C99.7453 102.306 97.2182 105.312 95.9426 108.169C94.6671 111.027 94.1836 114.356 97.659 120.398C99.887 124.268 93.9803 122.395 95.4518 128.387C96.9233 134.38 98.6886 136.235 98.6886 136.235C98.6886 136.235 115.023 121.395 119.731 119.113C120.355 118.81 120.981 118.501 121.598 118.197C121.163 117.123 120.664 116.063 120.034 115.045C119 113.705 118.314 112.141 117.927 110.505ZM112.523 112.548C110.315 113.404 107.374 113.404 107.374 113.404C107.374 113.404 107.669 110.535 112.523 110.533C112.523 110.533 114.73 111.694 112.523 112.548Z" fill="#638170"/>
<path d="M142.697 89.3533C142.697 89.3533 135.505 106.553 131.875 122.809C131.339 125.213 131.165 128.382 130.992 130.666C129.667 148.215 126.034 153.496 124.688 155.351C123.34 157.205 128.344 157.259 133.052 129.953C137.761 102.648 142.533 91.361 144.53 89.712L142.697 89.3533Z" fill="#7A9987"/>
<path d="M156.383 140.865L158.185 139.656C158.185 139.656 162.14 145.148 171.417 152.387C174.845 155.062 191.413 167.838 194.711 170.047C196.327 171.13 180.113 160.862 173.863 155.578C167.612 150.291 156.383 140.865 156.383 140.865Z" fill="#638170"/>
<path d="M35.6761 114.741C35.6761 114.741 34.7247 114.829 34.1817 114.663C32.9979 114.304 26.8619 122.504 24.0837 125.788C21.3054 129.072 14.5442 136.176 12.0557 138.419C11.6357 138.798 21.7546 129.825 25.5593 125.031C29.2765 120.349 33.5908 115.483 35.6761 114.741Z" fill="#638170"/>
</svg>
