<svg width="44" height="90" viewBox="0 0 44 90" fill="none" xmlns="http://www.w3.org/2000/svg">
<path d="M16.7253 49.7725C16.1173 51.5015 15.7617 53.5769 15.7617 55.8117C15.7617 61.8315 18.3338 66.712 21.5067 66.712C24.6796 66.712 27.2516 61.8315 27.2516 55.8117C27.2516 53.5769 26.896 51.5015 26.288 49.7725H16.7253Z" fill="#312464"/>
<path opacity="0.9" d="M21.5062 89.9859C33.3838 89.9859 43.0125 80.3572 43.0125 68.4796C43.0125 56.6021 33.3838 46.9734 21.5062 46.9734C9.62867 46.9734 0 56.6021 0 68.4796C0 80.3572 9.62867 89.9859 21.5062 89.9859Z" fill="white"/>
<path d="M21.0629 46.9734C17.2054 46.9734 13.589 47.9942 10.459 49.7723H31.6668C28.5379 47.9942 24.9205 46.9734 21.0629 46.9734Z" fill="#3D306B"/>
<path d="M21.505 0H20.6211V46.9733H21.505V0Z" fill="#312464"/>
</svg>
